<mxfile host="app.diagrams.net" modified="2021-10-20T10:11:28.453Z" agent="5.0 (Windows)" etag="As0igL5B4sUzFQCaIb5w" version="15.3.7" type="github">
  <diagram id="R2lEEEUBdFMjLlhIrx00" name="Page-1">
    <mxGraphModel dx="2656" dy="892" grid="1" gridSize="10" guides="1" tooltips="1" connect="1" arrows="1" fold="1" page="1" pageScale="1" pageWidth="850" pageHeight="1100" math="0" shadow="0" extFonts="Permanent Marker^https://fonts.googleapis.com/css?family=Permanent+Marker">
      <root>
        <mxCell id="0" />
        <mxCell id="1" parent="0" />
        <mxCell id="IyBnpyPaxRVwpuqgMsIi-9" style="edgeStyle=none;rounded=0;orthogonalLoop=1;jettySize=auto;html=1;exitX=0;exitY=0.5;exitDx=0;exitDy=0;entryX=1;entryY=0.5;entryDx=0;entryDy=0;" edge="1" parent="1" source="IyBnpyPaxRVwpuqgMsIi-2" target="IyBnpyPaxRVwpuqgMsIi-7">
          <mxGeometry relative="1" as="geometry" />
        </mxCell>
        <mxCell id="IyBnpyPaxRVwpuqgMsIi-10" style="edgeStyle=none;rounded=0;orthogonalLoop=1;jettySize=auto;html=1;exitX=0.25;exitY=1;exitDx=0;exitDy=0;entryX=1;entryY=0.5;entryDx=0;entryDy=0;" edge="1" parent="1" source="IyBnpyPaxRVwpuqgMsIi-2" target="IyBnpyPaxRVwpuqgMsIi-8">
          <mxGeometry relative="1" as="geometry" />
        </mxCell>
        <mxCell id="IyBnpyPaxRVwpuqgMsIi-11" style="edgeStyle=none;rounded=0;orthogonalLoop=1;jettySize=auto;html=1;exitX=1;exitY=0.5;exitDx=0;exitDy=0;" edge="1" parent="1" source="IyBnpyPaxRVwpuqgMsIi-2" target="IyBnpyPaxRVwpuqgMsIi-4">
          <mxGeometry relative="1" as="geometry" />
        </mxCell>
        <mxCell id="IyBnpyPaxRVwpuqgMsIi-12" style="edgeStyle=none;rounded=0;orthogonalLoop=1;jettySize=auto;html=1;exitX=0.75;exitY=1;exitDx=0;exitDy=0;entryX=0;entryY=0;entryDx=0;entryDy=0;" edge="1" parent="1" source="IyBnpyPaxRVwpuqgMsIi-2" target="IyBnpyPaxRVwpuqgMsIi-6">
          <mxGeometry relative="1" as="geometry" />
        </mxCell>
        <mxCell id="IyBnpyPaxRVwpuqgMsIi-13" style="edgeStyle=none;rounded=0;orthogonalLoop=1;jettySize=auto;html=1;exitX=0.5;exitY=1;exitDx=0;exitDy=0;entryX=0.5;entryY=0;entryDx=0;entryDy=0;" edge="1" parent="1" source="IyBnpyPaxRVwpuqgMsIi-2" target="IyBnpyPaxRVwpuqgMsIi-3">
          <mxGeometry relative="1" as="geometry" />
        </mxCell>
        <mxCell id="IyBnpyPaxRVwpuqgMsIi-2" value="&lt;font style=&quot;font-size: 16px&quot;&gt;User&lt;/font&gt;" style="rounded=0;whiteSpace=wrap;html=1;fillColor=#fff2cc;strokeColor=#d6b656;strokeWidth=2;" vertex="1" parent="1">
          <mxGeometry x="390" y="40" width="120" height="40" as="geometry" />
        </mxCell>
        <mxCell id="IyBnpyPaxRVwpuqgMsIi-14" style="edgeStyle=none;rounded=0;orthogonalLoop=1;jettySize=auto;html=1;exitX=1;exitY=0.5;exitDx=0;exitDy=0;entryX=0;entryY=0.5;entryDx=0;entryDy=0;" edge="1" parent="1" source="IyBnpyPaxRVwpuqgMsIi-3" target="IyBnpyPaxRVwpuqgMsIi-15">
          <mxGeometry relative="1" as="geometry">
            <mxPoint x="640" y="280" as="targetPoint" />
          </mxGeometry>
        </mxCell>
        <mxCell id="IyBnpyPaxRVwpuqgMsIi-27" style="edgeStyle=none;rounded=0;orthogonalLoop=1;jettySize=auto;html=1;exitX=0;exitY=0.5;exitDx=0;exitDy=0;entryX=1;entryY=0.5;entryDx=0;entryDy=0;" edge="1" parent="1" source="IyBnpyPaxRVwpuqgMsIi-3" target="IyBnpyPaxRVwpuqgMsIi-24">
          <mxGeometry relative="1" as="geometry" />
        </mxCell>
        <mxCell id="IyBnpyPaxRVwpuqgMsIi-34" style="edgeStyle=none;rounded=0;orthogonalLoop=1;jettySize=auto;html=1;exitX=0.5;exitY=1;exitDx=0;exitDy=0;entryX=0.5;entryY=0;entryDx=0;entryDy=0;" edge="1" parent="1" source="IyBnpyPaxRVwpuqgMsIi-3" target="IyBnpyPaxRVwpuqgMsIi-23">
          <mxGeometry relative="1" as="geometry" />
        </mxCell>
        <mxCell id="IyBnpyPaxRVwpuqgMsIi-61" style="edgeStyle=none;rounded=0;orthogonalLoop=1;jettySize=auto;html=1;exitX=1;exitY=0.5;exitDx=0;exitDy=0;entryX=0;entryY=0.5;entryDx=0;entryDy=0;" edge="1" parent="1" source="IyBnpyPaxRVwpuqgMsIi-3" target="IyBnpyPaxRVwpuqgMsIi-22">
          <mxGeometry relative="1" as="geometry" />
        </mxCell>
        <mxCell id="IyBnpyPaxRVwpuqgMsIi-3" value="Has" style="rhombus;whiteSpace=wrap;html=1;strokeWidth=2;fillColor=#d5e8d4;strokeColor=#82b366;fontSize=15;" vertex="1" parent="1">
          <mxGeometry x="407.5" y="230" width="85" height="80" as="geometry" />
        </mxCell>
        <mxCell id="IyBnpyPaxRVwpuqgMsIi-4" value="&lt;font style=&quot;font-size: 15px&quot;&gt;Password&lt;/font&gt;" style="ellipse;whiteSpace=wrap;html=1;strokeWidth=2;fillColor=#ffe6cc;strokeColor=#d79b00;" vertex="1" parent="1">
          <mxGeometry x="570" y="35" width="110" height="50" as="geometry" />
        </mxCell>
        <mxCell id="IyBnpyPaxRVwpuqgMsIi-6" value="&lt;font style=&quot;font-size: 15px&quot;&gt;Phone NO&lt;/font&gt;" style="ellipse;whiteSpace=wrap;html=1;strokeWidth=2;fillColor=#ffe6cc;strokeColor=#d79b00;" vertex="1" parent="1">
          <mxGeometry x="530" y="110" width="110" height="50" as="geometry" />
        </mxCell>
        <mxCell id="IyBnpyPaxRVwpuqgMsIi-7" value="&lt;font style=&quot;font-size: 15px&quot;&gt;Email&lt;/font&gt;" style="ellipse;whiteSpace=wrap;html=1;strokeWidth=2;fillColor=#ffe6cc;strokeColor=#d79b00;" vertex="1" parent="1">
          <mxGeometry x="210" y="35" width="110" height="50" as="geometry" />
        </mxCell>
        <mxCell id="IyBnpyPaxRVwpuqgMsIi-8" value="&lt;font style=&quot;font-size: 15px&quot;&gt;Username&lt;/font&gt;" style="ellipse;whiteSpace=wrap;html=1;strokeWidth=2;fillColor=#ffe6cc;strokeColor=#d79b00;" vertex="1" parent="1">
          <mxGeometry x="240" y="110" width="110" height="50" as="geometry" />
        </mxCell>
        <mxCell id="IyBnpyPaxRVwpuqgMsIi-19" style="edgeStyle=none;rounded=0;orthogonalLoop=1;jettySize=auto;html=1;exitX=0.5;exitY=0;exitDx=0;exitDy=0;entryX=0.5;entryY=1;entryDx=0;entryDy=0;" edge="1" parent="1" source="IyBnpyPaxRVwpuqgMsIi-15" target="IyBnpyPaxRVwpuqgMsIi-16">
          <mxGeometry relative="1" as="geometry" />
        </mxCell>
        <mxCell id="IyBnpyPaxRVwpuqgMsIi-20" style="edgeStyle=none;rounded=0;orthogonalLoop=1;jettySize=auto;html=1;exitX=1;exitY=0.5;exitDx=0;exitDy=0;entryX=0;entryY=1;entryDx=0;entryDy=0;" edge="1" parent="1" source="IyBnpyPaxRVwpuqgMsIi-15" target="IyBnpyPaxRVwpuqgMsIi-17">
          <mxGeometry relative="1" as="geometry" />
        </mxCell>
        <mxCell id="IyBnpyPaxRVwpuqgMsIi-21" style="edgeStyle=none;rounded=0;orthogonalLoop=1;jettySize=auto;html=1;exitX=0.75;exitY=1;exitDx=0;exitDy=0;entryX=-0.009;entryY=0.34;entryDx=0;entryDy=0;entryPerimeter=0;" edge="1" parent="1" source="IyBnpyPaxRVwpuqgMsIi-15" target="IyBnpyPaxRVwpuqgMsIi-18">
          <mxGeometry relative="1" as="geometry" />
        </mxCell>
        <mxCell id="IyBnpyPaxRVwpuqgMsIi-15" value="&lt;font style=&quot;font-size: 16px&quot;&gt;Profile&lt;/font&gt;" style="rounded=0;whiteSpace=wrap;html=1;fillColor=#fff2cc;strokeColor=#d6b656;strokeWidth=2;" vertex="1" parent="1">
          <mxGeometry x="740" y="250" width="120" height="40" as="geometry" />
        </mxCell>
        <mxCell id="IyBnpyPaxRVwpuqgMsIi-16" value="&lt;font style=&quot;font-size: 15px&quot;&gt;Profile Img&lt;br&gt;&lt;/font&gt;" style="ellipse;whiteSpace=wrap;html=1;strokeWidth=2;fillColor=#ffe6cc;strokeColor=#d79b00;" vertex="1" parent="1">
          <mxGeometry x="740" y="160" width="110" height="50" as="geometry" />
        </mxCell>
        <mxCell id="IyBnpyPaxRVwpuqgMsIi-17" value="&lt;font style=&quot;font-size: 15px&quot;&gt;Addresh&lt;br&gt;&lt;/font&gt;" style="ellipse;whiteSpace=wrap;html=1;strokeWidth=2;fillColor=#ffe6cc;strokeColor=#d79b00;" vertex="1" parent="1">
          <mxGeometry x="890" y="210" width="110" height="50" as="geometry" />
        </mxCell>
        <mxCell id="IyBnpyPaxRVwpuqgMsIi-18" value="&lt;font style=&quot;font-size: 15px&quot;&gt;Full Name&lt;br&gt;&lt;/font&gt;" style="ellipse;whiteSpace=wrap;html=1;strokeWidth=2;fillColor=#ffe6cc;strokeColor=#d79b00;" vertex="1" parent="1">
          <mxGeometry x="910" y="280" width="110" height="50" as="geometry" />
        </mxCell>
        <mxCell id="IyBnpyPaxRVwpuqgMsIi-65" style="edgeStyle=none;rounded=0;orthogonalLoop=1;jettySize=auto;html=1;exitX=1;exitY=0.5;exitDx=0;exitDy=0;entryX=0;entryY=0.5;entryDx=0;entryDy=0;" edge="1" parent="1" source="IyBnpyPaxRVwpuqgMsIi-22" target="IyBnpyPaxRVwpuqgMsIi-62">
          <mxGeometry relative="1" as="geometry" />
        </mxCell>
        <mxCell id="IyBnpyPaxRVwpuqgMsIi-66" style="edgeStyle=none;rounded=0;orthogonalLoop=1;jettySize=auto;html=1;exitX=0.5;exitY=1;exitDx=0;exitDy=0;entryX=0.5;entryY=0;entryDx=0;entryDy=0;" edge="1" parent="1" source="IyBnpyPaxRVwpuqgMsIi-22" target="IyBnpyPaxRVwpuqgMsIi-63">
          <mxGeometry relative="1" as="geometry" />
        </mxCell>
        <mxCell id="IyBnpyPaxRVwpuqgMsIi-22" value="&lt;font style=&quot;font-size: 16px&quot;&gt;Order&lt;/font&gt;" style="rounded=0;whiteSpace=wrap;html=1;fillColor=#fff2cc;strokeColor=#d6b656;strokeWidth=2;" vertex="1" parent="1">
          <mxGeometry x="600" y="350" width="120" height="40" as="geometry" />
        </mxCell>
        <mxCell id="IyBnpyPaxRVwpuqgMsIi-36" style="edgeStyle=none;rounded=0;orthogonalLoop=1;jettySize=auto;html=1;exitX=1;exitY=0.5;exitDx=0;exitDy=0;" edge="1" parent="1" source="IyBnpyPaxRVwpuqgMsIi-23" target="IyBnpyPaxRVwpuqgMsIi-35">
          <mxGeometry relative="1" as="geometry" />
        </mxCell>
        <mxCell id="IyBnpyPaxRVwpuqgMsIi-77" style="edgeStyle=none;rounded=0;orthogonalLoop=1;jettySize=auto;html=1;exitX=0.042;exitY=0.5;exitDx=0;exitDy=0;entryX=0.564;entryY=1;entryDx=0;entryDy=0;entryPerimeter=0;exitPerimeter=0;" edge="1" parent="1" source="IyBnpyPaxRVwpuqgMsIi-23" target="IyBnpyPaxRVwpuqgMsIi-69">
          <mxGeometry relative="1" as="geometry" />
        </mxCell>
        <mxCell id="IyBnpyPaxRVwpuqgMsIi-78" style="edgeStyle=none;rounded=0;orthogonalLoop=1;jettySize=auto;html=1;exitX=0;exitY=0.5;exitDx=0;exitDy=0;entryX=0.5;entryY=1;entryDx=0;entryDy=0;" edge="1" parent="1" source="IyBnpyPaxRVwpuqgMsIi-23" target="IyBnpyPaxRVwpuqgMsIi-70">
          <mxGeometry relative="1" as="geometry" />
        </mxCell>
        <mxCell id="IyBnpyPaxRVwpuqgMsIi-79" style="edgeStyle=none;rounded=0;orthogonalLoop=1;jettySize=auto;html=1;exitX=0;exitY=0.5;exitDx=0;exitDy=0;entryX=1;entryY=1;entryDx=0;entryDy=0;" edge="1" parent="1" source="IyBnpyPaxRVwpuqgMsIi-23" target="IyBnpyPaxRVwpuqgMsIi-68">
          <mxGeometry relative="1" as="geometry" />
        </mxCell>
        <mxCell id="IyBnpyPaxRVwpuqgMsIi-80" style="edgeStyle=none;rounded=0;orthogonalLoop=1;jettySize=auto;html=1;exitX=0;exitY=0.5;exitDx=0;exitDy=0;entryX=1;entryY=1;entryDx=0;entryDy=0;" edge="1" parent="1" source="IyBnpyPaxRVwpuqgMsIi-23" target="IyBnpyPaxRVwpuqgMsIi-76">
          <mxGeometry relative="1" as="geometry" />
        </mxCell>
        <mxCell id="IyBnpyPaxRVwpuqgMsIi-81" style="edgeStyle=none;rounded=0;orthogonalLoop=1;jettySize=auto;html=1;exitX=0;exitY=0.5;exitDx=0;exitDy=0;" edge="1" parent="1" source="IyBnpyPaxRVwpuqgMsIi-23" target="IyBnpyPaxRVwpuqgMsIi-71">
          <mxGeometry relative="1" as="geometry" />
        </mxCell>
        <mxCell id="IyBnpyPaxRVwpuqgMsIi-82" style="edgeStyle=none;rounded=0;orthogonalLoop=1;jettySize=auto;html=1;exitX=0;exitY=0.75;exitDx=0;exitDy=0;entryX=1;entryY=0.5;entryDx=0;entryDy=0;" edge="1" parent="1" source="IyBnpyPaxRVwpuqgMsIi-23" target="IyBnpyPaxRVwpuqgMsIi-72">
          <mxGeometry relative="1" as="geometry" />
        </mxCell>
        <mxCell id="IyBnpyPaxRVwpuqgMsIi-83" style="edgeStyle=none;rounded=0;orthogonalLoop=1;jettySize=auto;html=1;exitX=0;exitY=0.5;exitDx=0;exitDy=0;entryX=1;entryY=0;entryDx=0;entryDy=0;" edge="1" parent="1" source="IyBnpyPaxRVwpuqgMsIi-23" target="IyBnpyPaxRVwpuqgMsIi-73">
          <mxGeometry relative="1" as="geometry" />
        </mxCell>
        <mxCell id="IyBnpyPaxRVwpuqgMsIi-84" style="edgeStyle=none;rounded=0;orthogonalLoop=1;jettySize=auto;html=1;exitX=0;exitY=0.75;exitDx=0;exitDy=0;" edge="1" parent="1" source="IyBnpyPaxRVwpuqgMsIi-23" target="IyBnpyPaxRVwpuqgMsIi-67">
          <mxGeometry relative="1" as="geometry" />
        </mxCell>
        <mxCell id="IyBnpyPaxRVwpuqgMsIi-85" style="edgeStyle=none;rounded=0;orthogonalLoop=1;jettySize=auto;html=1;exitX=0.5;exitY=1;exitDx=0;exitDy=0;entryX=0.5;entryY=0;entryDx=0;entryDy=0;" edge="1" parent="1" source="IyBnpyPaxRVwpuqgMsIi-23" target="IyBnpyPaxRVwpuqgMsIi-74">
          <mxGeometry relative="1" as="geometry" />
        </mxCell>
        <mxCell id="IyBnpyPaxRVwpuqgMsIi-86" style="edgeStyle=none;rounded=0;orthogonalLoop=1;jettySize=auto;html=1;exitX=0.5;exitY=1;exitDx=0;exitDy=0;entryX=0.4;entryY=-0.04;entryDx=0;entryDy=0;entryPerimeter=0;" edge="1" parent="1" source="IyBnpyPaxRVwpuqgMsIi-23" target="IyBnpyPaxRVwpuqgMsIi-75">
          <mxGeometry relative="1" as="geometry" />
        </mxCell>
        <mxCell id="IyBnpyPaxRVwpuqgMsIi-23" value="&lt;font style=&quot;font-size: 16px&quot;&gt;Product&lt;/font&gt;" style="rounded=0;whiteSpace=wrap;html=1;fillColor=#fff2cc;strokeColor=#d6b656;strokeWidth=2;" vertex="1" parent="1">
          <mxGeometry x="405" y="600" width="120" height="40" as="geometry" />
        </mxCell>
        <mxCell id="IyBnpyPaxRVwpuqgMsIi-31" style="edgeStyle=none;rounded=0;orthogonalLoop=1;jettySize=auto;html=1;exitX=0.5;exitY=0;exitDx=0;exitDy=0;entryX=0.645;entryY=1.02;entryDx=0;entryDy=0;entryPerimeter=0;" edge="1" parent="1" source="IyBnpyPaxRVwpuqgMsIi-24" target="IyBnpyPaxRVwpuqgMsIi-30">
          <mxGeometry relative="1" as="geometry" />
        </mxCell>
        <mxCell id="IyBnpyPaxRVwpuqgMsIi-32" style="edgeStyle=none;rounded=0;orthogonalLoop=1;jettySize=auto;html=1;exitX=0.5;exitY=1;exitDx=0;exitDy=0;entryX=0.5;entryY=0;entryDx=0;entryDy=0;" edge="1" parent="1" source="IyBnpyPaxRVwpuqgMsIi-24" target="IyBnpyPaxRVwpuqgMsIi-29">
          <mxGeometry relative="1" as="geometry" />
        </mxCell>
        <mxCell id="IyBnpyPaxRVwpuqgMsIi-33" style="edgeStyle=none;rounded=0;orthogonalLoop=1;jettySize=auto;html=1;exitX=0;exitY=0.5;exitDx=0;exitDy=0;entryX=1;entryY=0.5;entryDx=0;entryDy=0;" edge="1" parent="1" source="IyBnpyPaxRVwpuqgMsIi-24" target="IyBnpyPaxRVwpuqgMsIi-28">
          <mxGeometry relative="1" as="geometry" />
        </mxCell>
        <mxCell id="IyBnpyPaxRVwpuqgMsIi-24" value="&lt;font style=&quot;font-size: 16px&quot;&gt;Cart&lt;/font&gt;" style="rounded=0;whiteSpace=wrap;html=1;fillColor=#fff2cc;strokeColor=#d6b656;strokeWidth=2;" vertex="1" parent="1">
          <mxGeometry x="120" y="260" width="120" height="40" as="geometry" />
        </mxCell>
        <mxCell id="IyBnpyPaxRVwpuqgMsIi-28" value="&lt;font style=&quot;font-size: 15px&quot;&gt;Amount&lt;/font&gt;" style="ellipse;whiteSpace=wrap;html=1;strokeWidth=2;fillColor=#ffe6cc;strokeColor=#d79b00;" vertex="1" parent="1">
          <mxGeometry x="-40" y="260" width="110" height="50" as="geometry" />
        </mxCell>
        <mxCell id="IyBnpyPaxRVwpuqgMsIi-29" value="&lt;font style=&quot;font-size: 15px&quot;&gt;Qunatity&lt;/font&gt;" style="ellipse;whiteSpace=wrap;html=1;strokeWidth=2;fillColor=#ffe6cc;strokeColor=#d79b00;" vertex="1" parent="1">
          <mxGeometry x="125" y="360" width="110" height="50" as="geometry" />
        </mxCell>
        <mxCell id="IyBnpyPaxRVwpuqgMsIi-30" value="&lt;font style=&quot;font-size: 15px&quot;&gt;Product Detail&lt;br&gt;&lt;/font&gt;" style="ellipse;whiteSpace=wrap;html=1;strokeWidth=2;fillColor=#ffe6cc;strokeColor=#d79b00;" vertex="1" parent="1">
          <mxGeometry x="110" y="170" width="110" height="50" as="geometry" />
        </mxCell>
        <mxCell id="IyBnpyPaxRVwpuqgMsIi-44" style="edgeStyle=none;rounded=0;orthogonalLoop=1;jettySize=auto;html=1;exitX=1;exitY=0.5;exitDx=0;exitDy=0;entryX=0;entryY=0.5;entryDx=0;entryDy=0;" edge="1" parent="1" source="IyBnpyPaxRVwpuqgMsIi-35" target="IyBnpyPaxRVwpuqgMsIi-41">
          <mxGeometry relative="1" as="geometry" />
        </mxCell>
        <mxCell id="IyBnpyPaxRVwpuqgMsIi-45" style="edgeStyle=none;rounded=0;orthogonalLoop=1;jettySize=auto;html=1;exitX=0.5;exitY=1;exitDx=0;exitDy=0;" edge="1" parent="1" source="IyBnpyPaxRVwpuqgMsIi-35" target="IyBnpyPaxRVwpuqgMsIi-40">
          <mxGeometry relative="1" as="geometry" />
        </mxCell>
        <mxCell id="IyBnpyPaxRVwpuqgMsIi-35" value="Has" style="rhombus;whiteSpace=wrap;html=1;strokeWidth=2;fillColor=#d5e8d4;strokeColor=#82b366;fontSize=15;" vertex="1" parent="1">
          <mxGeometry x="670" y="570" width="85" height="80" as="geometry" />
        </mxCell>
        <mxCell id="IyBnpyPaxRVwpuqgMsIi-56" style="edgeStyle=none;rounded=0;orthogonalLoop=1;jettySize=auto;html=1;exitX=0.5;exitY=1;exitDx=0;exitDy=0;entryX=0.5;entryY=0;entryDx=0;entryDy=0;" edge="1" parent="1" source="IyBnpyPaxRVwpuqgMsIi-40" target="IyBnpyPaxRVwpuqgMsIi-55">
          <mxGeometry relative="1" as="geometry" />
        </mxCell>
        <mxCell id="IyBnpyPaxRVwpuqgMsIi-57" style="edgeStyle=none;rounded=0;orthogonalLoop=1;jettySize=auto;html=1;exitX=1;exitY=0.5;exitDx=0;exitDy=0;" edge="1" parent="1" source="IyBnpyPaxRVwpuqgMsIi-40" target="IyBnpyPaxRVwpuqgMsIi-54">
          <mxGeometry relative="1" as="geometry" />
        </mxCell>
        <mxCell id="IyBnpyPaxRVwpuqgMsIi-58" style="edgeStyle=none;rounded=0;orthogonalLoop=1;jettySize=auto;html=1;exitX=0.75;exitY=1;exitDx=0;exitDy=0;entryX=0;entryY=0;entryDx=0;entryDy=0;" edge="1" parent="1" source="IyBnpyPaxRVwpuqgMsIi-40" target="IyBnpyPaxRVwpuqgMsIi-53">
          <mxGeometry relative="1" as="geometry" />
        </mxCell>
        <mxCell id="IyBnpyPaxRVwpuqgMsIi-40" value="&lt;font style=&quot;font-size: 16px&quot;&gt;Category&lt;/font&gt;" style="rounded=0;whiteSpace=wrap;html=1;fillColor=#fff2cc;strokeColor=#d6b656;strokeWidth=2;" vertex="1" parent="1">
          <mxGeometry x="652.5" y="800" width="120" height="40" as="geometry" />
        </mxCell>
        <mxCell id="IyBnpyPaxRVwpuqgMsIi-50" style="edgeStyle=none;rounded=0;orthogonalLoop=1;jettySize=auto;html=1;exitX=0.5;exitY=0;exitDx=0;exitDy=0;entryX=0.5;entryY=1;entryDx=0;entryDy=0;" edge="1" parent="1" source="IyBnpyPaxRVwpuqgMsIi-41" target="IyBnpyPaxRVwpuqgMsIi-49">
          <mxGeometry relative="1" as="geometry" />
        </mxCell>
        <mxCell id="IyBnpyPaxRVwpuqgMsIi-51" style="edgeStyle=none;rounded=0;orthogonalLoop=1;jettySize=auto;html=1;exitX=0.5;exitY=1;exitDx=0;exitDy=0;" edge="1" parent="1" source="IyBnpyPaxRVwpuqgMsIi-41" target="IyBnpyPaxRVwpuqgMsIi-47">
          <mxGeometry relative="1" as="geometry" />
        </mxCell>
        <mxCell id="IyBnpyPaxRVwpuqgMsIi-52" style="edgeStyle=none;rounded=0;orthogonalLoop=1;jettySize=auto;html=1;exitX=1;exitY=0.5;exitDx=0;exitDy=0;entryX=0.027;entryY=0.68;entryDx=0;entryDy=0;entryPerimeter=0;" edge="1" parent="1" source="IyBnpyPaxRVwpuqgMsIi-41" target="IyBnpyPaxRVwpuqgMsIi-48">
          <mxGeometry relative="1" as="geometry" />
        </mxCell>
        <mxCell id="IyBnpyPaxRVwpuqgMsIi-41" value="&lt;font style=&quot;font-size: 15px&quot;&gt;Reviews&lt;/font&gt;" style="rounded=0;whiteSpace=wrap;html=1;fillColor=#fff2cc;strokeColor=#d6b656;strokeWidth=2;" vertex="1" parent="1">
          <mxGeometry x="860" y="590" width="120" height="40" as="geometry" />
        </mxCell>
        <mxCell id="IyBnpyPaxRVwpuqgMsIi-47" value="&lt;font style=&quot;font-size: 15px&quot;&gt;Product Id&lt;br&gt;&lt;/font&gt;" style="ellipse;whiteSpace=wrap;html=1;strokeWidth=2;fillColor=#ffe6cc;strokeColor=#d79b00;" vertex="1" parent="1">
          <mxGeometry x="880" y="680" width="110" height="50" as="geometry" />
        </mxCell>
        <mxCell id="IyBnpyPaxRVwpuqgMsIi-48" value="&lt;font style=&quot;font-size: 15px&quot;&gt;Score&lt;br&gt;&lt;/font&gt;" style="ellipse;whiteSpace=wrap;html=1;strokeWidth=2;fillColor=#ffe6cc;strokeColor=#d79b00;" vertex="1" parent="1">
          <mxGeometry x="1040" y="580" width="110" height="50" as="geometry" />
        </mxCell>
        <mxCell id="IyBnpyPaxRVwpuqgMsIi-49" value="&lt;font style=&quot;font-size: 15px&quot;&gt;Description&lt;br&gt;&lt;/font&gt;" style="ellipse;whiteSpace=wrap;html=1;strokeWidth=2;fillColor=#ffe6cc;strokeColor=#d79b00;" vertex="1" parent="1">
          <mxGeometry x="870" y="480" width="110" height="50" as="geometry" />
        </mxCell>
        <mxCell id="IyBnpyPaxRVwpuqgMsIi-53" value="&lt;font style=&quot;font-size: 15px&quot;&gt;Descrption&lt;br&gt;&lt;/font&gt;" style="ellipse;whiteSpace=wrap;html=1;strokeWidth=2;fillColor=#ffe6cc;strokeColor=#d79b00;" vertex="1" parent="1">
          <mxGeometry x="810" y="870" width="110" height="50" as="geometry" />
        </mxCell>
        <mxCell id="IyBnpyPaxRVwpuqgMsIi-54" value="&lt;font style=&quot;font-size: 15px&quot;&gt;Name&lt;br&gt;&lt;/font&gt;" style="ellipse;whiteSpace=wrap;html=1;strokeWidth=2;fillColor=#ffe6cc;strokeColor=#d79b00;" vertex="1" parent="1">
          <mxGeometry x="830" y="790" width="110" height="50" as="geometry" />
        </mxCell>
        <mxCell id="IyBnpyPaxRVwpuqgMsIi-55" value="&lt;font style=&quot;font-size: 15px&quot;&gt;ID&lt;br&gt;&lt;/font&gt;" style="ellipse;whiteSpace=wrap;html=1;strokeWidth=2;fillColor=#ffe6cc;strokeColor=#d79b00;" vertex="1" parent="1">
          <mxGeometry x="662.5" y="900" width="110" height="50" as="geometry" />
        </mxCell>
        <mxCell id="IyBnpyPaxRVwpuqgMsIi-62" value="&lt;font style=&quot;font-size: 15px&quot;&gt;Bill Id &lt;br&gt;&lt;/font&gt;" style="ellipse;whiteSpace=wrap;html=1;strokeWidth=2;fillColor=#ffe6cc;strokeColor=#d79b00;" vertex="1" parent="1">
          <mxGeometry x="790" y="350" width="110" height="50" as="geometry" />
        </mxCell>
        <mxCell id="IyBnpyPaxRVwpuqgMsIi-63" value="&lt;font style=&quot;font-size: 15px&quot;&gt;Order Id&lt;br&gt;&lt;/font&gt;" style="ellipse;whiteSpace=wrap;html=1;strokeWidth=2;fillColor=#ffe6cc;strokeColor=#d79b00;" vertex="1" parent="1">
          <mxGeometry x="605" y="420" width="110" height="50" as="geometry" />
        </mxCell>
        <mxCell id="IyBnpyPaxRVwpuqgMsIi-67" value="&lt;font style=&quot;font-size: 15px&quot;&gt;Selling Price&lt;br&gt;&lt;/font&gt;" style="ellipse;whiteSpace=wrap;html=1;strokeWidth=2;fillColor=#ffe6cc;strokeColor=#d79b00;" vertex="1" parent="1">
          <mxGeometry x="290" y="790" width="110" height="50" as="geometry" />
        </mxCell>
        <mxCell id="IyBnpyPaxRVwpuqgMsIi-68" value="&lt;font style=&quot;font-size: 15px&quot;&gt;Qunatity&lt;/font&gt;" style="ellipse;whiteSpace=wrap;html=1;strokeWidth=2;fillColor=#ffe6cc;strokeColor=#d79b00;" vertex="1" parent="1">
          <mxGeometry x="80" y="500" width="110" height="50" as="geometry" />
        </mxCell>
        <mxCell id="IyBnpyPaxRVwpuqgMsIi-69" value="&lt;font style=&quot;font-size: 15px&quot;&gt;Product Id&lt;br&gt;&lt;/font&gt;" style="ellipse;whiteSpace=wrap;html=1;strokeWidth=2;fillColor=#ffe6cc;strokeColor=#d79b00;" vertex="1" parent="1">
          <mxGeometry x="330" y="500" width="110" height="50" as="geometry" />
        </mxCell>
        <mxCell id="IyBnpyPaxRVwpuqgMsIi-70" value="&lt;font style=&quot;font-size: 15px&quot;&gt;Name&lt;/font&gt;" style="ellipse;whiteSpace=wrap;html=1;strokeWidth=2;fillColor=#ffe6cc;strokeColor=#d79b00;" vertex="1" parent="1">
          <mxGeometry x="200" y="490" width="110" height="50" as="geometry" />
        </mxCell>
        <mxCell id="IyBnpyPaxRVwpuqgMsIi-71" value="&lt;font style=&quot;font-size: 15px&quot;&gt;Product Img&lt;br&gt;&lt;/font&gt;" style="ellipse;whiteSpace=wrap;html=1;strokeWidth=2;fillColor=#ffe6cc;strokeColor=#d79b00;" vertex="1" parent="1">
          <mxGeometry y="660" width="110" height="50" as="geometry" />
        </mxCell>
        <mxCell id="IyBnpyPaxRVwpuqgMsIi-72" value="&lt;font style=&quot;font-size: 15px&quot;&gt;MRP&lt;/font&gt;" style="ellipse;whiteSpace=wrap;html=1;strokeWidth=2;fillColor=#ffe6cc;strokeColor=#d79b00;" vertex="1" parent="1">
          <mxGeometry x="30" y="740" width="110" height="50" as="geometry" />
        </mxCell>
        <mxCell id="IyBnpyPaxRVwpuqgMsIi-73" value="&lt;font style=&quot;font-size: 15px&quot;&gt;Weight&lt;/font&gt;" style="ellipse;whiteSpace=wrap;html=1;strokeWidth=2;fillColor=#ffe6cc;strokeColor=#d79b00;" vertex="1" parent="1">
          <mxGeometry x="150" y="780" width="110" height="50" as="geometry" />
        </mxCell>
        <mxCell id="IyBnpyPaxRVwpuqgMsIi-74" value="&lt;font style=&quot;font-size: 15px&quot;&gt;Description&lt;/font&gt;" style="ellipse;whiteSpace=wrap;html=1;strokeWidth=2;fillColor=#ffe6cc;strokeColor=#d79b00;" vertex="1" parent="1">
          <mxGeometry x="410" y="790" width="110" height="50" as="geometry" />
        </mxCell>
        <mxCell id="IyBnpyPaxRVwpuqgMsIi-75" value="&lt;font style=&quot;font-size: 15px&quot;&gt;Category Id&lt;/font&gt;" style="ellipse;whiteSpace=wrap;html=1;strokeWidth=2;fillColor=#ffe6cc;strokeColor=#d79b00;" vertex="1" parent="1">
          <mxGeometry x="510" y="740" width="110" height="50" as="geometry" />
        </mxCell>
        <mxCell id="IyBnpyPaxRVwpuqgMsIi-76" value="&lt;font style=&quot;font-size: 15px&quot;&gt;Self life&lt;br&gt;&lt;/font&gt;" style="ellipse;whiteSpace=wrap;html=1;strokeWidth=2;fillColor=#ffe6cc;strokeColor=#d79b00;" vertex="1" parent="1">
          <mxGeometry x="10" y="570" width="110" height="50" as="geometry" />
        </mxCell>
      </root>
    </mxGraphModel>
  </diagram>
</mxfile>
